<svg xmlns="http://www.w3.org/2000/svg" xmlns:xlink="http://www.w3.org/1999/xlink" viewBox="0 0 48.16 77.25"><defs><style>.cls-1{fill:url(#radial-gradient);}</style><radialGradient id="radial-gradient" cx="-0.95" cy="71.12" r="38.04" gradientTransform="translate(0 -14.63) scale(1 1.21)" gradientUnits="userSpaceOnUse"><stop offset="0" stop-color="#a55858"/><stop offset="1" stop-color="#4361b5"/></radialGradient></defs><g id="Layer_2" data-name="Layer 2"><g id="Layer_1-2" data-name="Layer 1"><path class="cls-1" d="M21.16,35.07V63.44a1.85,1.85,0,0,1-.26.94L13.69,76.44a1.63,1.63,0,0,1-2.32.53C.44,69.28-.06,49.29,0,44.11a4.7,4.7,0,0,1,.62-2.26l3.49-6A3.8,3.8,0,0,1,7.41,34H20.05A1.11,1.11,0,0,1,21.16,35.07Zm27,9a4.59,4.59,0,0,0-.62-2.26l-3.48-6a3.8,3.8,0,0,0-3.3-1.9H28.11A1.11,1.11,0,0,0,27,35.07V63.44a1.84,1.84,0,0,0,.25.94c1.1,1.83,5.37,9,7.21,12.06a1.63,1.63,0,0,0,2.32.53C47.72,69.28,48.21,49.29,48.15,44.11ZM17.72,12.48,10.45,25a2.12,2.12,0,0,0,1.83,3.19h7.77a1.12,1.12,0,0,0,1.11-1.12V13.41A1.84,1.84,0,0,0,17.72,12.48Zm10.39,15.7h7.76A2.13,2.13,0,0,0,37.71,25L30.44,12.48a1.84,1.84,0,0,0-3.44.93V27.06A1.11,1.11,0,0,0,28.11,28.18ZM6.61.71h0a2.43,2.43,0,0,0,0,3.45l4.08,4.08a2.43,2.43,0,0,0,3.44,0h0a2.41,2.41,0,0,0,0-3.44L10.05.71A2.43,2.43,0,0,0,6.61.71ZM38.1.71,34,4.8a2.43,2.43,0,0,0,0,3.44h0a2.44,2.44,0,0,0,3.45,0l4.08-4.08a2.44,2.44,0,0,0,0-3.45h0A2.44,2.44,0,0,0,38.1.71Z"/></g></g></svg>