<svg width="1042" height="722" viewBox="0 0 1042 722" fill="none" xmlns="http://www.w3.org/2000/svg">
<path d="M535.815 720.933C534.275 720.625 530.315 719.379 527.03 718.161C521.971 716.299 520.489 716.24 517.586 717.795C515.694 718.807 511.544 718.425 510.62 719.188C509.461 720.156 506.528 719.525 501.205 717.164C496.952 715.287 454.085 694.286 444.23 691.969C439.229 690.811 429.052 689.843 421.616 689.828C408.857 689.813 407.538 689.52 398.592 684.857C391.435 681.132 385.29 676.028 373.675 664.149C359.611 649.777 338.42 632.37 329.606 627.955C319.37 622.822 304.529 614.038 303.003 612.205C300.613 609.316 286.241 609.242 286.241 612.131C286.241 615.006 284.32 615.856 273.116 617.998C257.497 620.975 253.757 620.593 249.285 615.578C246.879 612.865 244.562 611.53 243.11 611.985C241.835 612.395 237.963 613.759 234.502 615.035C225.659 618.262 202.004 618.086 192.486 614.713C187.529 612.953 185.168 612.674 184.464 613.759C183.921 614.61 180.944 615.768 177.879 616.326C174.8 616.883 171.485 618.012 170.517 618.804C169.549 619.611 166.572 619.904 163.903 619.464C161.234 619.039 157.143 619.229 154.826 619.889C149.341 621.459 147.053 617.954 149.003 610.929C150.015 607.219 149.825 605.737 148.094 603.992C146.07 601.983 146.202 601.147 149.561 594.621C153.227 587.508 153.242 587.45 150.529 584.546C147.581 581.364 146.965 576.554 149.238 574.295C150.015 573.503 151.35 568.928 152.2 564.117C153.124 558.838 154.562 555.054 155.793 554.57C158.99 553.353 165.531 560.95 169.315 570.247C172.248 577.477 173.318 578.753 177.131 579.531C180.622 580.249 181.883 579.853 183.203 577.668C184.112 576.158 187.778 573.43 191.342 571.597C196.856 568.781 198.44 568.517 201.974 569.851C205.641 571.23 206.697 570.981 211.008 567.696C213.692 565.643 217.564 563.971 219.602 563.971C223.474 563.971 224.486 561.507 221.743 558.765C220.819 557.841 220.555 555.612 221.098 553.441C221.904 550.229 222.638 549.775 226.187 550.303C230.058 550.86 230.161 550.757 227.859 548.631C226.509 547.37 224.31 545.932 222.96 545.419C219.646 544.143 219.851 540.198 223.239 540.198C224.72 540.198 226.333 540.829 226.817 541.591C227.287 542.369 230.63 542.999 234.238 542.985C240.089 542.985 241.057 542.515 243.242 538.658C245.633 534.479 245.618 534.332 242.905 533.614C241.351 533.203 240.089 531.707 240.089 530.255C240.089 528.554 239.107 527.615 237.303 527.615C232.434 527.615 233.71 520.62 239.737 514.197C242.627 511.132 246.249 507.099 247.789 505.251L250.575 501.893L245.692 505.06C237.112 510.604 231.496 512.54 226.905 511.528C224.544 511.014 220.57 510.53 218.077 510.472C215.569 510.398 213.531 509.797 213.531 509.137C213.531 508.463 216.405 504.84 219.925 501.086C226.128 494.457 226.245 494.164 224.075 490.835C221.978 487.653 222.066 486.714 225.395 476.492C227.36 470.465 230 464.408 231.246 463.03C233.387 460.669 233.343 460.507 230.601 460.507C227.375 460.507 223.312 465.317 223.312 469.145C223.312 470.861 221.201 472.21 216.082 473.721C209.454 475.7 208.632 475.686 206.301 473.559C204.893 472.298 199.731 462.751 200.992 460.419C203.118 456.43 201.666 453.087 198.279 454.172C194.847 455.257 194.392 454.421 192.691 443.935C191.929 439.14 190.008 433.626 188.438 431.617C185.652 428.082 184.435 423.287 186.664 424.665C187.265 425.032 188.761 422.539 189.993 419.136L192.222 412.918L188.189 410.543C183.599 407.83 183.056 405.351 186.605 403.283C188.145 402.389 185.681 400.805 186.224 399.089C186.942 396.86 186.547 396.552 183.907 397.241C182.176 397.696 179.155 398.898 177.219 399.91C173.069 402.081 167.892 402.345 166.719 400.438C166.264 399.705 145.63 395.628 137.227 394.748C126.654 393.648 119.712 392.108 114.691 389.777C105.786 385.626 103.886 385.582 100.06 389.41C97.5562 391.903 95.6101 392.372 88.515 392.138L79.9813 391.859L77.1934 397.872C75.3661 401.802 73.4421 403.943 71.6089 404.075C57.9907 405.072 55.2307 404.955 54.2217 403.327C53.6161 402.345 46.3964 399.822 45.4138 398.385C44.8492 397.564 44.3769 395.364 44.3652 393.502C44.3535 391.639 42.3722 386.624 39.9627 382.356C34.7844 373.175 32.8412 367.177 34.6788 366.048C35.4003 365.594 37.8597 365.183 40.1416 365.124C42.7843 365.036 54.8846 358.232 56.6606 357.674C59.2182 356.882 60.0468 357.264 60.6437 359.551C61.5148 362.88 62.6939 363.467 71.1616 364.728C75.9396 365.447 77.7844 365.154 79.2011 363.438C80.213 362.221 82.25 361.223 83.7298 361.223C85.2549 361.223 87.4518 359.419 88.8025 357.044C90.7442 353.627 92.1021 352.849 96.1483 352.849C98.8775 352.849 101.885 352.072 102.83 351.119C104.191 349.755 105.261 350.268 107.954 353.568C109.825 355.856 111.38 358.569 111.408 359.595C111.435 360.622 112.245 361.194 113.205 360.857C114.304 360.475 114.954 357.542 114.954 352.952C114.954 343.742 117.564 341.22 124.803 343.434C127.46 344.256 129.631 345.751 129.631 346.778C129.631 349.3 131.889 349.124 136.787 346.235C139.823 344.432 141.495 344.182 143.299 345.267C145.029 346.309 146.701 346.206 149.209 344.916C151.79 343.566 152.068 343.082 150.265 343.068C146.114 343.038 147.552 340.56 152.699 338.859C155.397 337.964 157.597 336.806 157.597 336.292C157.597 335.764 159.254 333.55 161.264 331.379L164.93 327.42L167.584 331.394C169.036 333.579 170.077 336.615 169.901 338.155C169.242 343.786 171.5 344.842 176.31 341.176C179.067 339.079 196.534 335.852 198.851 335.368C201.916 334.708 204.863 335.456 209.864 338.125C214.645 340.677 218.004 341.557 221.113 341.059C223.708 340.648 227.243 341.264 229.677 342.525C234.781 345.209 242.143 346.265 248.141 345.165C252.672 344.329 251 335.882 254.08 329.942C259.198 320.043 261.339 310.892 258.538 310.892C257.908 310.892 256.177 312.007 254.696 313.356C244.709 322.448 238.315 326.584 233.241 327.273C224.882 328.388 210.29 325.132 203.016 320.513C196.328 316.274 190.741 316.128 187.544 320.087C185.681 322.404 178.481 325.249 177.351 324.12C176.897 323.666 177.645 321.348 179.009 318.973C182.015 313.722 180.211 310.599 175.753 313.371C171.837 315.834 171.559 315.57 173.157 310.965C174.125 308.194 176.061 306.361 179.038 305.363C181.516 304.542 196.079 290.405 197.809 287.75C199.555 285.096 201.769 282.925 202.737 282.925C206.242 282.925 237.024 263.347 238.08 263.347C239.151 263.347 246.777 255.017 252.599 255.633L258.964 256.308L254.769 254.299C252.467 253.199 248.845 252.26 246.733 252.231C243.712 252.187 242.876 251.498 242.847 249.019C242.817 247.289 241.952 244.766 240.925 243.402C239.136 241.056 239.004 241.071 238.3 243.74C237.156 248.125 233.167 247.23 232.2 242.376L231.349 238.182L228.944 242.728C227.624 245.236 226.128 248.931 225.644 250.97C224.574 255.325 222.77 256.22 216.816 255.34C213.677 254.871 210.598 252.568 206.022 247.274C198.733 238.842 198.865 238.504 210.73 234.691C218.869 232.081 221.919 230.292 221.919 228.136C221.919 227.403 220.189 228.004 218.077 229.47C211.961 233.709 209.351 234.251 208.236 231.524C206.741 227.901 202.693 228.209 201.74 232.022C201.285 233.826 199.731 235.938 198.279 236.715C193.864 239.076 192.442 235.425 192.427 221.551C192.413 214.497 191.811 208.822 191.078 208.822C190.359 208.822 189.744 209.922 189.744 211.271C189.714 214.131 186.517 223.722 185.124 225.115C184.596 225.643 184.156 222.343 184.141 217.797C184.112 207.37 182.191 209.848 179.771 223.414C178.041 233.093 180.754 234.501 176.281 228.869C174.682 226.889 173.245 211.08 172.512 210.64C171.691 210.127 171.559 214.6 172.189 222.563C172.732 229.588 172.805 235.938 172.351 236.671C171.089 238.71 162.862 235.454 163.713 233.254C164.109 232.213 156.204 227.887 156.204 227.667C156.204 227.461 163.126 214.175 163.082 213.016C163.038 211.623 162.598 211.857 161.777 213.72C161.088 215.26 154.606 223.179 153.432 221.405C152.67 220.261 152.039 219.967 152.024 220.759C152.01 221.551 150.059 223.355 147.684 224.748C144.516 226.625 142.947 226.889 141.817 225.76C140.967 224.895 139.207 224.206 137.916 224.206C136.626 224.206 134.587 222.783 133.37 221.053C131.273 218.032 131.17 218.222 131.112 225.877C131.038 232.462 130.496 234.207 127.929 236.011C124.042 238.724 117.209 238.739 113.638 236.041C112.145 234.911 109.923 233.987 108.702 233.987C104.672 233.987 82.8381 243.872 80.675 246.673C79.0926 248.711 76.2519 249.606 69.4898 250.163C58.5143 251.072 54.3171 249.21 52.0498 242.449C50.9631 239.208 48.1723 236.055 43.5425 232.844L36.6542 228.077L22.0843 228.796C7.63017 229.514 1 228.312 1 224.968C1 222.592 11.0692 213.353 14.2823 212.781C16.048 212.473 17.2286 211.007 17.4838 208.807C17.7067 206.901 19.5178 202.017 21.5079 197.969L25.1273 190.593L29.4917 193.511C31.8924 195.11 35.8916 197.324 38.3774 198.439C41.1242 199.656 54.1338 213.016 55.7235 213.016C58.3632 213.016 58.2283 212.576 54.1822 207.971C49.7224 202.882 47.1399 197.779 47.1399 194.039C47.1399 192.441 48.4128 192.206 53.0823 192.925C56.3511 193.423 59.9691 194.45 61.1232 195.227C62.2759 195.99 60.585 194.318 57.3645 191.502C48.1591 183.422 45.7423 178.509 45.7423 167.803C45.7423 160.148 46.1969 158.344 48.4202 157.156C51.1098 155.719 81.4581 177.717 84.0626 178.802C86.6672 179.887 91.1137 183.465 93.9441 186.765C98.571 192.147 99.0022 193.306 98.2161 198.336C97.3993 203.557 97.4828 203.748 99.4612 201.137C100.627 199.597 108.998 197.5 110.264 196.166C112.416 193.893 112.312 193.687 108.631 192.954C104.148 192.045 96.3082 182.864 98.3144 180.855C99.0124 180.166 103.985 178.949 109.366 178.186C125.187 175.898 127.621 175.18 129.484 172.188C131.185 169.46 131.141 169.446 128.032 171.616C124.092 174.373 105.49 174.696 94.6407 172.203C85.8811 170.179 79.3932 164.195 72.6575 151.95C68.5835 144.529 68.667 139.631 72.9434 135.349C77.849 130.451 81.8761 131.066 91.2897 138.179C95.8462 141.611 100.7 144.441 102.077 144.471C103.453 144.485 106.435 145.878 108.702 147.55C110.968 149.222 113.132 150.293 113.511 149.911C113.889 149.53 111.258 147.374 107.663 145.116C91.7751 135.129 77.9018 119.598 77.9018 111.808C77.9018 107.027 80.7307 99.759 82.5815 99.784C86.173 99.8309 94.8578 103.637 97.9052 106.501C99.69 108.178 102.253 109.551 103.6 109.551C104.947 109.551 107.423 110.215 109.104 111.026C110.783 111.839 109.645 110.424 106.574 107.881C92.0406 95.8478 91.4965 95.1512 93.3898 90.9951C94.7287 88.0576 96.1234 87.1689 99.448 87.1352C103.339 87.0941 103.525 86.9049 101.321 85.2331C98.3085 82.9453 98.1912 81.5858 101.005 81.5858C102.179 81.5858 106.764 74.5949 107.947 74.5949C109.13 74.5949 111.148 73.7854 112.576 73.0477C120.267 69.072 135.13 83.2093 136.729 83.7138C140.439 84.8929 145 92.3692 145.014 97.2865C145.014 100.835 145.249 100.991 148.475 99.5273C153.154 97.395 156.204 100.041 156.204 106.226C156.204 109.331 156.864 110.949 158.155 110.949C159.225 110.949 166.015 112.785 167.188 114.206C168.054 115.247 168.391 116.466 167.951 116.914C166.895 117.966 168.64 123.529 170.033 123.529C170.605 123.529 171.236 120.244 171.412 116.225C171.793 107.781 172.16 107.124 175.02 109.507C176.193 110.472 178.129 110.883 179.331 110.421C180.9 109.819 182.118 110.994 183.584 114.52C184.728 117.237 190.579 126.198 191.591 128.148C193.219 131.286 193.586 131.418 194.95 129.351C196.284 127.312 196.651 127.503 197.985 130.905C198.821 133.046 200.449 135.158 201.593 135.598C203.954 136.493 206.887 145.526 205.582 147.873C204.981 148.943 205.201 148.958 206.345 147.932C207.43 146.934 207.65 143.605 207.034 137.725C206.301 130.744 205.157 127.723 201.314 122.693C197.428 117.607 196.842 116.02 198.205 114.377C199.129 113.26 199.335 112.327 198.675 112.302C198 112.277 198.704 111.293 200.244 110.113C202.957 108.038 202.928 107.997 199.467 108.844C196.534 109.56 195.58 109.061 194.246 106.136C193.19 103.837 189.876 101.338 184.992 99.1812C168.508 91.8911 154.826 80.0372 154.811 73.0374C154.796 68.9385 165.311 62.9961 172.658 62.9463C180.592 62.895 190.521 66.5407 194.04 70.801L196.607 73.8954L195.815 70.7497C195.17 68.1671 195.61 67.5864 198.337 67.5057C200.156 67.4515 202.898 66.8252 204.438 66.1125C206.418 65.1945 205.509 65.0551 201.3 65.6344C197.34 66.177 195.346 65.9248 195.346 64.8806C195.346 64.0168 192.515 62.0957 189.054 60.613C184.684 58.7403 182.763 57.086 182.763 55.203C182.763 52.8595 182.03 52.5882 177.351 53.2159C174.33 53.6221 171.544 53.3053 171.045 52.4973C170.459 51.5338 168.875 51.6789 166.323 52.9328C158.858 56.5947 153.11 56.7062 147.244 53.2995C144.237 51.5543 140.527 48.4247 138.972 46.3452C136.641 43.1863 136.479 42.2052 137.99 40.372C139.002 39.1651 140.835 38.4773 142.067 38.8424C150.499 41.3326 151.79 41.2695 153.388 38.2822C154.752 35.7349 154.635 35.3448 152.64 35.7114C151.335 35.9504 149.561 34.9165 148.695 33.4163C147.83 31.916 145.953 29.6942 144.545 28.4799C142.052 26.3403 142.052 26.1658 144.721 22.869C147.038 20.0225 148.021 19.6954 150.793 20.8687C155.06 22.6784 160.824 21.8014 159.929 19.4769C158.888 16.736 160.692 14.9102 165.502 13.866C169.08 13.0917 170.547 13.5507 173.201 16.2667C178.554 21.7559 185.52 25.9751 187.778 25.1069C188.937 24.6611 190.55 22.3997 191.357 20.0826C193.219 14.7576 195.727 14.7518 200.464 20.065C202.517 22.3719 204.878 24.2505 205.714 24.2387C206.55 24.2256 206.286 23.6199 205.142 22.891C203.294 21.7281 203.338 21.2661 205.45 19.1602C207.723 16.887 208.002 16.8958 210.7 19.3317C212.255 20.7484 214.22 24.4397 215.056 27.534C216.654 33.4955 222.726 41.0378 225.908 41.0378C227.272 41.0378 227.551 42.0952 226.876 44.7775C226.055 48.0434 226.216 48.2898 228.108 46.7177C229.912 45.2218 230.425 45.3142 231.173 47.2662C231.672 48.5582 231.437 50.9897 230.645 52.6674C228.885 56.4466 228.651 62.3391 230.293 61.3199C230.968 60.9063 231.906 61.2114 232.39 61.9989C232.962 62.9052 234.047 62.6574 235.382 61.3228C238.242 58.469 242.04 58.5482 240.94 61.4387C239.635 64.8205 241.219 66.243 244.768 64.8938C248.434 63.4962 252.672 65.3602 252.672 68.3724C252.672 69.4885 253.376 70.4006 254.241 70.4006C255.092 70.4006 255.488 71.6179 255.092 73.1064C254.256 76.3151 257.585 81.5858 260.445 81.5858C261.559 81.5858 268.775 85.6599 270.52 87.1088C273.086 89.2484 273.424 90.3777 272.382 93.145C270.491 98.1063 270.593 114.568 272.5 112.664C273.321 111.84 274.861 111.5 275.917 111.906C277.046 112.337 277.853 111.748 277.853 110.494C277.853 107.944 282.076 106.317 285.39 107.59C286.681 108.086 288.734 110.413 289.951 112.764C291.975 116.696 291.975 117.176 289.805 118.748C286.798 120.947 289.423 122.766 292.914 120.903C294.85 119.877 296.991 120.507 301.904 123.558C305.438 125.758 308.796 128.309 309.354 129.204C310.703 131.374 307.476 133.266 302.402 133.296C298.501 133.325 298.428 133.428 300.994 135.305C302.49 136.39 303.223 137.769 302.622 138.37C302.036 138.956 303.59 140.115 306.083 140.922C311.993 142.857 314.545 150.058 310.776 154.208C309.324 155.821 308.694 157.963 309.207 159.59C310.248 162.875 305.687 173.992 301.64 178.039L298.677 181.002L301.537 183.378C304.382 185.753 304.382 185.768 300.114 192.045C294.674 200.037 293.779 200.477 285.478 199.289C280.214 198.541 278.234 197.544 276.973 195.007L275.33 191.707L273.746 194.67C270.095 201.489 278.791 208.792 290.611 208.822C292.635 208.822 295.114 209.834 296.14 211.066C297.724 212.972 297.519 214.189 294.732 219.117L291.462 224.91L295.568 221.053C299.997 216.917 302.901 216.257 305.482 218.838C307.623 220.979 306.098 236.348 303.326 240.631C301.508 243.432 301.537 243.784 303.546 243.784C304.793 243.784 305.805 244.605 305.805 245.617C305.805 246.644 307.388 248.843 309.31 250.515C312.58 253.346 313.21 262.907 313.929 263.802C315.909 266.339 317.023 281.664 315.44 284.627C313.885 287.53 316.349 297.473 318.314 296.256C320.133 295.127 321.482 282.999 321.218 270.064C320.954 257.203 321.804 252.172 324.283 252.172C326.409 252.172 329.474 256.557 329.621 259.857C329.694 261.397 331.278 265.796 333.141 269.639L336.528 276.634L335.678 270.357C335.194 266.911 333.947 261.646 332.891 258.654C330.325 251.366 330.472 246.614 333.595 237.096C335.047 232.697 336.631 227.359 337.13 225.232C337.628 223.106 342.893 216.33 348.847 210.2L359.67 199.025L364.275 200.756L368.88 202.501L368.044 211.212C367.208 219.747 367.267 219.938 370.889 220.847C372.913 221.361 376.946 221.067 379.85 220.187C382.753 219.322 386.2 218.618 387.519 218.618C391.479 218.618 393.664 215.216 396.641 204.452C400.014 192.309 400.278 182.688 397.404 177.174C396.245 174.974 387.945 141.655 386.141 126.432C386.024 125.538 387.05 121.681 387.094 117.586C387.182 110.188 387.226 110.133 392.623 108.448C395.6 107.517 399.589 106.754 401.466 106.754C403.343 106.754 405.822 105.81 406.98 104.657C409.532 102.105 414.225 101.928 416.249 104.307C422.423 111.566 436.78 144.94 437.939 145.908C439.097 146.861 440.036 148.694 440.036 149.985C440.036 151.393 442.602 153.592 446.415 155.44C451.753 158.021 453.352 159.796 456.212 166.248C458.074 170.487 459.614 176.324 459.614 179.227C459.614 182.146 460.553 185.739 461.682 187.234C463.72 189.889 463.779 189.889 464.644 186.795C465.759 182.879 470.158 182.674 472.519 186.457C474.675 189.904 477.594 190.065 478.752 186.795C479.221 185.46 480.512 183.304 481.612 182.028C483.093 180.283 483.225 178.993 482.14 176.954C481.231 175.253 481.128 172.643 481.891 170.017C482.844 166.688 473.429 146.641 471.918 144.984C469.674 142.535 469.454 141.435 470.73 139.044C471.596 137.431 473.546 136.111 475.086 136.111C477.564 136.111 477.828 135.29 477.506 128.705C477.227 123.001 477.814 120.375 480.087 117.255C482.668 113.723 484.002 113.181 490.558 112.994C494.679 112.877 499.474 113.297 501.205 113.927C503.39 114.723 505.575 110.862 507.056 109.932C508.772 108.865 510.106 105.913 510.722 101.896C511.412 97.2762 512.79 94.5983 515.811 92.0627C522.763 86.2098 530.858 88.5577 528.878 95.8507C528.013 99.039 528.027 99.0375 529.978 95.7056C531.063 93.8577 531.664 91.2547 531.312 89.9201C530.477 86.7363 532.72 85.478 537.223 86.6058C539.76 87.2452 541.08 88.7088 541.651 91.5201C542.091 93.7214 543.001 95.1849 543.661 94.7714C544.335 94.3578 547.4 96.0458 550.48 98.5228C556.273 103.175 557.563 107.337 554.337 110.952C552.841 112.626 552.958 112.634 555.114 110.996C557.314 109.327 558.033 109.475 560.716 112.151C563.356 114.795 563.781 116.753 563.781 126.33V137.446L572.874 140.79C582.172 144.207 588.243 150.146 588.243 155.836C588.243 157.229 594.652 174.197 595.708 175.81C596.764 177.438 598.083 182.366 598.626 186.78C600.298 200.111 601.588 196.987 601.984 178.714C602.395 159.869 602.542 160.294 593.185 153.812C590.194 151.745 589.651 150.498 590.326 147.404C590.897 144.764 590.458 142.96 588.932 141.699C585.559 138.898 583.389 132.665 580.617 117.787C578.344 105.685 578.3 103.744 580.163 98.2133C582.568 91.0552 582.465 91.0713 603.51 94.7905C617.31 97.2293 622.399 99.0668 621.123 101.145C620.697 101.827 623.088 104.267 626.431 106.568C633.837 111.67 640.114 119.628 641.302 125.45C642.446 131.081 647.227 132.885 656.319 131.125L662.992 129.82L665.705 118.404C667.89 109.24 669.063 106.691 671.689 105.5C674.988 103.997 676.103 99.2516 673.536 97.6663C671.19 96.2159 671.967 93.2022 675.853 88.5768C678.2 85.783 680.458 84.4045 682.028 84.8122C683.523 85.2038 684.726 84.5468 685.093 83.1301C685.547 81.3805 687.234 80.835 691.897 80.9215C699.479 81.0652 701.503 82.2062 701.503 86.3462C701.503 88.1031 702.764 90.6812 704.304 92.073C705.844 93.4647 707.09 95.7642 707.09 97.1838C707.09 98.602 708.044 99.7634 709.202 99.7634C712.282 99.7634 739.061 81.7472 740.087 82.1417C744.736 83.9264 750.925 66.8223 747.743 60.9679C745.469 56.7737 740.659 39.3645 740.659 35.3169C740.659 33.1978 739.09 29.6136 737.198 27.3522C733.928 23.4718 733.825 22.8895 735.497 17.107L737.272 10.9769L746.247 10.669C753.051 10.4358 755.867 10.9388 757.92 12.7661C759.753 14.3896 760.824 14.6447 761.205 13.5522C761.513 12.662 762.994 10.5209 764.49 8.79475C766.001 7.06718 767.218 5.17389 767.218 4.58728C767.218 3.33487 775.167 3.89508 778.833 5.40414C780.739 6.1858 781.561 5.68864 782.162 3.41113C782.969 0.353417 786.415 0.126106 785.726 3.17648C785.52 4.07693 795.141 11.7058 796.813 12.1414C799.335 12.8013 799.54 13.2838 798.074 15.0524C796.901 16.475 796.637 19.0663 797.296 22.9379C798.118 27.7701 798.719 28.5885 801.007 27.9887C802.62 27.5663 813.678 33.186 816.053 35.553C821.186 40.6829 821.582 45.6149 817.549 53.9521C814.308 60.6834 814.103 62.1426 816.508 61.6616C817.593 61.4446 818.253 62.8964 818.253 65.5068C818.253 69.116 818.766 69.7011 821.978 69.7011C824.017 69.7011 832.992 72.7309 834.224 73.869C841.41 80.5886 844.827 82.9849 847.276 82.9849C849.417 82.9849 849.857 82.2883 849.256 79.8377C846.719 69.2582 846.645 66.0348 848.845 63.596C850.385 61.8948 852.453 61.295 855.327 61.7159C861.208 62.5796 867.749 59.5586 868.775 55.5051C869.23 53.6602 878.571 39.6476 883.836 35.6747C888.075 32.4718 892.064 29.8526 892.694 29.8526C893.325 29.8526 894.909 31.1109 896.228 32.6493C899.03 35.9196 902.799 36.0942 910.542 33.3078C913.607 32.1991 917.654 31.2825 919.517 31.2722L922.905 31.2502L919.796 34.569C916.877 37.6677 912.947 39.6974 901.801 43.8712C899 44.9168 897.255 46.5329 897.255 48.0654C897.255 49.5437 894.689 52.0632 890.964 54.2468C887.503 56.275 884.672 58.2475 884.672 58.6318C884.672 59.0145 885.948 61.0662 887.532 63.1927C893.545 71.3231 885.816 87.5341 874.084 91.4042C870.726 92.5173 869.288 93.8328 869.288 95.8258C869.288 97.9801 869.875 98.4216 871.737 97.656C879.085 94.6306 879.349 94.7802 878.645 101.566C878.146 106.338 878.425 107.778 879.745 107.272C880.713 106.898 894.014 109.858 895.187 111.446C896.712 113.533 897.211 113.401 900.555 110.061C902.579 108.033 904.25 105.93 904.25 105.389C904.25 104.849 905.893 103.653 907.917 102.732C913.211 100.324 915.689 103.151 920.353 116.895C923.887 127.283 924.092 128.896 922.553 134.659C920.719 141.611 915.469 150.131 909.486 155.909C905.233 160.016 906.641 170.237 908.65 164.973L904.148 176.749C904.148 176.749 926.571 171.396 940.224 163.917C944.257 161.702 948.114 159.884 948.818 159.884C951.458 159.884 951.781 164.767 949.581 171.396C947.337 178.142 947.352 178.333 950.446 181.618C952.177 183.465 958.409 188.129 964.305 192.001C975.304 199.231 979.219 200.199 987.608 197.793C993.166 196.195 1001.25 199.656 1000.31 203.234C999.971 204.54 1000.87 206.314 1002.3 207.223C1003.74 208.118 1004.91 209.79 1004.91 210.934C1004.91 213.603 1006.88 213.603 1009.11 210.919C1010.08 209.76 1011.41 208.822 1012.1 208.822C1014.46 208.822 1021.62 217.914 1021.66 220.979C1021.68 222.666 1022.36 224.455 1023.19 224.968C1024.01 225.467 1024.24 226.919 1023.71 228.195C1023.19 229.456 1022.57 234.046 1022.35 238.387C1021.76 250.046 1018.7 254.9 1011.95 254.944L1008.49 254.959L1011.6 257.144C1016.25 260.4 1015.38 263.186 1008.76 266.192C1003.62 268.524 1003.31 268.891 1006.45 268.92C1008.46 268.935 1012.07 268.26 1014.49 267.41C1020.65 265.268 1029.57 269.756 1029.01 274.713C1027.98 283.791 1021.92 289.921 1014.02 289.921C1012.19 289.921 1010.22 290.654 1009.68 291.534C1008.98 292.678 1009.68 292.883 1012.04 292.238C1022.28 289.437 1025.58 289.539 1027.28 292.692C1029.4 296.681 1027.95 302.504 1024.81 302.518C1022.89 302.548 1027.32 307.343 1027.35 308.37C1027.39 309.367 1028.95 307.255 1030.83 303.647C1036.58 292.604 1038.86 292.839 1039.13 304.557C1039.21 308.751 1039.74 312.623 1040.29 313.165C1042.87 315.761 1041.12 322.096 1036.97 325.176C1033.77 327.537 1032.84 329.18 1033.3 331.614C1033.69 333.579 1028.96 339.152 1025.94 339.929C1019.93 341.455 1017.86 340.589 1009.81 333.183C1004.22 328.036 995.131 324.208 995.131 326.98C995.131 328.138 992.975 329.356 989.881 329.957C984.983 330.91 984.865 331.042 988.136 331.981C990.057 332.538 994.134 333.051 997.17 333.125C1000.72 333.213 1003.74 334.283 1005.57 336.087C1010.91 341.396 1022.39 349.711 1025.08 350.224C1032.88 351.72 1025.21 356.912 1014.84 357.146L1009.81 357.264L1014.33 359.243C1022.28 362.719 1022.5 372.105 1014.68 374.789C1010.98 376.05 1010.57 376.475 1012.95 376.534C1016.98 376.636 1017 378.836 1012.98 380.977C1011.26 381.887 1009.02 383.485 1007.99 384.526C1005.79 386.712 997.096 383.603 996.275 383.603C995.322 383.603 997.478 390.656 998.636 391.096C1001.55 392.226 1001.23 397.139 997.918 401.773C995.234 405.542 985.115 410.161 979.542 410.161C975.186 410.161 967.986 405.908 964.481 401.274C960.594 396.097 954.582 391.214 954.582 393.223C954.582 393.986 956.473 395.936 958.776 397.579C961.372 399.426 970.083 413.3 971.96 413.754C975.494 414.649 977.562 417.831 976.125 420.148C975.641 420.94 971.109 421.16 965.287 420.706C958.101 420.134 956.165 420.295 958.424 421.278C960.154 422.04 961.577 423.521 961.577 424.563C961.577 427.246 951.135 435.327 947.674 435.327C943.48 435.327 943.685 441.985 947.938 443.657C950.622 444.727 952.103 443.847 958.16 437.629C962.046 433.64 965.654 429.241 966.197 427.848C967.487 424.46 971.945 425.501 972.488 429.329C973.001 432.848 969.745 438.48 963.791 444.346C961.137 446.971 959.494 450.154 959.26 453.072C959.054 455.594 958.219 458.923 957.383 460.478C956.561 462.032 956.151 463.294 956.488 463.294C956.811 463.294 956.356 466.153 955.476 469.629C953.907 475.788 953.555 476.096 943.26 480.569C925.148 488.445 918.446 495.293 920.353 503.99C921.013 506.952 920.558 508.199 918.417 509.343C916.877 510.164 915.425 512.246 915.176 513.977C914.765 516.837 913.724 517.218 903.62 518.142C897.504 518.684 892.24 518.875 891.917 518.552C891.58 518.215 891.682 516.983 892.137 515.795C892.694 514.343 894.806 513.639 898.531 513.639C905.453 513.639 906.494 512.114 902.285 508.169C899.499 505.544 898.883 505.412 898.179 507.26C897.71 508.463 896.214 509.445 894.835 509.445C893.457 509.445 891.55 510.692 890.582 512.232C888.427 515.707 886.065 515.869 886.065 512.54C886.065 509.797 881.446 505.251 878.674 505.251C877.706 505.251 875.433 504.224 873.644 502.963C870.506 500.763 870.447 500.778 871.943 503.579C874.201 507.788 873.849 509.445 870.682 509.445C868.599 509.445 867.895 510.369 867.895 513.097C867.895 516.749 867.91 516.749 876.636 515.869C885.288 515.003 890.025 516.221 888.368 518.904C887.899 519.667 882.208 520.737 875.712 521.28C859.815 522.6 849.696 525.944 842.436 532.279C839.137 535.168 834.854 537.881 832.933 538.321C825.923 539.949 817.608 545.991 807.9 556.521C802.444 562.446 794.481 571.714 790.199 574.456C783.819 578.533 781.751 580.88 778.774 587.435C776.795 591.835 761.997 607.556 758.023 615.71C755.779 620.3 752.993 624.436 751.834 624.89C746.819 626.855 724.645 629.788 709.188 630.522C680.942 631.886 653.181 640.949 645.57 651.302C644.426 652.872 641.815 658.239 639.762 663.24C637.724 668.241 633.955 676.424 631.374 681.425C625.097 693.612 617.324 698.627 592.437 706.517C582.054 709.817 568.225 714.422 561.684 716.768C550.377 720.816 541.974 722.165 535.815 720.933V720.933ZM266.824 492.653C267.587 492.653 270.124 493.651 272.485 494.883C275.183 496.276 277.251 496.598 278.102 495.762C278.938 494.927 276.841 493.592 272.426 492.155C263.129 489.104 262.909 489.148 256.91 494.56C252.731 498.329 252.115 499.487 253.743 500.529C255.209 501.438 257.13 500.514 260.621 497.229C263.275 494.721 266.076 492.653 266.824 492.653ZM242.92 458.395C247.041 456.254 251.176 450.711 248.639 450.711C247.906 450.711 245.516 452.192 243.345 453.981C241.175 455.785 238.139 457.97 236.599 458.835C234.077 460.258 234.047 460.419 236.32 460.463C237.699 460.478 240.676 459.554 242.92 458.395ZM169.916 128.427L169.857 124.232L168.787 128.427C168.2 130.729 167.687 133.882 167.658 135.422C167.584 138.208 167.584 138.208 168.787 135.422C169.447 133.882 169.96 130.729 169.916 128.427V128.427ZM572.243 137.167C570.469 131.36 570.381 124.936 572.082 124.936C576.32 124.936 580.324 135.481 576.907 137.637C574.208 139.352 572.874 139.206 572.243 137.167Z" stroke="url(#paint0_linear_81_12)"/>
<defs>
<linearGradient id="paint0_linear_81_12" x1="503.688" y1="-42.309" x2="497.039" y2="370.71" gradientUnits="userSpaceOnUse">
<stop stop-color="#4361B5"/>
<stop offset="1" stop-color="#A55858"/>
</linearGradient>
</defs>
</svg>
